<svg width="122" height="40" viewBox="0 0 122 40" fill="none" xmlns="http://www.w3.org/2000/svg">
<g opacity="0.9">
<path d="M37.5829 27.5V9.16687C37.5829 8.24648 36.8184 7.5 35.875 7.5H5.125C4.1816 7.5 3.41709 8.24648 3.41709 9.16687V27.5H0V30.8325C0 31.753 0.764506 32.5 1.70791 32.5H39.2921C40.2355 32.5 41 31.753 41 30.8325V27.5H37.5829ZM5.125 9.16687H35.875V25H5.125V9.16687ZM5.125 26.6675H35.875V27.5H5.125V26.6675ZM39.2921 30.8325H1.70791V29.1675H15.8017C15.8017 29.6265 16.1845 30 16.6562 30H24.3438C24.8155 30 25.1983 29.6265 25.1983 29.1675H39.2921V30.8325Z" fill="black"/>
<path d="M50.7461 14.1973L47.5264 24H45.5645L42.3584 14.1973H44.5869L46.542 20.7393L48.5039 14.1973H50.7461ZM57.9512 24H57.5L56.7754 22.9951C56.5977 23.1546 56.4085 23.305 56.208 23.4463C56.012 23.583 55.8047 23.7038 55.5859 23.8086C55.3672 23.9089 55.1416 23.9886 54.9092 24.0479C54.6813 24.1071 54.4489 24.1367 54.2119 24.1367C53.6969 24.1367 53.2116 24.0501 52.7559 23.877C52.3047 23.7038 51.9082 23.4531 51.5664 23.125C51.2292 22.7923 50.9626 22.3867 50.7666 21.9082C50.5706 21.4297 50.4727 20.8851 50.4727 20.2744C50.4727 19.7048 50.5706 19.1829 50.7666 18.709C50.9626 18.2305 51.2292 17.8203 51.5664 17.4785C51.9082 17.1367 52.3047 16.8724 52.7559 16.6855C53.2116 16.4941 53.6969 16.3984 54.2119 16.3984C54.4489 16.3984 54.6836 16.4281 54.916 16.4873C55.1484 16.5465 55.374 16.6286 55.5928 16.7334C55.8115 16.8382 56.0189 16.9613 56.2148 17.1025C56.4154 17.2438 56.6022 17.3965 56.7754 17.5605L57.5 16.6924H57.9512V24ZM56.0713 20.2744C56.0713 20.0192 56.0212 19.7731 55.9209 19.5361C55.8252 19.2946 55.693 19.0827 55.5244 18.9004C55.3558 18.7135 55.1576 18.5654 54.9297 18.4561C54.7064 18.3421 54.4671 18.2852 54.2119 18.2852C53.9567 18.2852 53.7152 18.3285 53.4873 18.415C53.264 18.5016 53.068 18.6292 52.8994 18.7979C52.7354 18.9665 52.6055 19.1761 52.5098 19.4268C52.4141 19.6729 52.3662 19.9554 52.3662 20.2744C52.3662 20.5934 52.4141 20.8783 52.5098 21.1289C52.6055 21.375 52.7354 21.5824 52.8994 21.751C53.068 21.9196 53.264 22.0472 53.4873 22.1338C53.7152 22.2204 53.9567 22.2637 54.2119 22.2637C54.4671 22.2637 54.7064 22.209 54.9297 22.0996C55.1576 21.9857 55.3558 21.8376 55.5244 21.6553C55.693 21.4684 55.8252 21.2565 55.9209 21.0195C56.0212 20.778 56.0713 20.5296 56.0713 20.2744ZM66.4551 24H66.0039L65.2793 22.9951C65.1016 23.1546 64.9124 23.305 64.7119 23.4463C64.516 23.583 64.3086 23.7038 64.0898 23.8086C63.8711 23.9089 63.6455 23.9886 63.4131 24.0479C63.1852 24.1071 62.9528 24.1367 62.7158 24.1367C62.2008 24.1367 61.7155 24.041 61.2598 23.8496C60.8086 23.6536 60.4121 23.3848 60.0703 23.043C59.7331 22.6966 59.4665 22.2887 59.2705 21.8193C59.0745 21.3454 58.9766 20.8304 58.9766 20.2744C58.9766 19.723 59.0745 19.2103 59.2705 18.7363C59.4665 18.2624 59.7331 17.8522 60.0703 17.5059C60.4121 17.1595 60.8086 16.8883 61.2598 16.6924C61.7155 16.4964 62.2008 16.3984 62.7158 16.3984C62.8799 16.3984 63.0485 16.4121 63.2217 16.4395C63.3994 16.4668 63.5703 16.5124 63.7344 16.5762C63.903 16.6354 64.0602 16.7152 64.2061 16.8154C64.3519 16.9157 64.4749 17.0387 64.5752 17.1846V13.7666H66.4551V24ZM64.5752 20.2744C64.5752 20.0192 64.5251 19.7731 64.4248 19.5361C64.3291 19.2946 64.1969 19.0827 64.0283 18.9004C63.8597 18.7135 63.6615 18.5654 63.4336 18.4561C63.2103 18.3421 62.971 18.2852 62.7158 18.2852C62.4606 18.2852 62.2191 18.3307 61.9912 18.4219C61.7679 18.513 61.5719 18.6452 61.4033 18.8184C61.2393 18.987 61.1094 19.1943 61.0137 19.4404C60.918 19.6865 60.8701 19.9645 60.8701 20.2744C60.8701 20.5433 60.918 20.7985 61.0137 21.04C61.1094 21.2816 61.2393 21.4935 61.4033 21.6758C61.5719 21.8581 61.7679 22.0016 61.9912 22.1064C62.2191 22.2113 62.4606 22.2637 62.7158 22.2637C62.971 22.2637 63.2103 22.209 63.4336 22.0996C63.6615 21.9857 63.8597 21.8376 64.0283 21.6553C64.1969 21.4684 64.3291 21.2565 64.4248 21.0195C64.5251 20.778 64.5752 20.5296 64.5752 20.2744ZM70.085 14.6895C70.085 14.8626 70.0508 15.0244 69.9824 15.1748C69.9186 15.3252 69.8298 15.4574 69.7158 15.5713C69.6019 15.6807 69.4674 15.7695 69.3125 15.8379C69.1621 15.9017 69.0003 15.9336 68.8271 15.9336C68.654 15.9336 68.4899 15.9017 68.335 15.8379C68.1846 15.7695 68.0524 15.6807 67.9385 15.5713C67.8291 15.4574 67.7402 15.3252 67.6719 15.1748C67.6081 15.0244 67.5762 14.8626 67.5762 14.6895C67.5762 14.5208 67.6081 14.3613 67.6719 14.2109C67.7402 14.056 67.8291 13.9238 67.9385 13.8145C68.0524 13.7005 68.1846 13.6117 68.335 13.5479C68.4899 13.4795 68.654 13.4453 68.8271 13.4453C69.0003 13.4453 69.1621 13.4795 69.3125 13.5479C69.4674 13.6117 69.6019 13.7005 69.7158 13.8145C69.8298 13.9238 69.9186 14.056 69.9824 14.2109C70.0508 14.3613 70.085 14.5208 70.085 14.6895ZM69.7637 24H67.8838V16.6787H69.7637V24ZM80.5029 24H78.6436V19.3516C78.6436 19.224 78.6185 19.1032 78.5684 18.9893C78.5228 18.8753 78.4567 18.7751 78.3701 18.6885C78.2835 18.6019 78.1833 18.5358 78.0693 18.4902C77.9554 18.4401 77.8346 18.415 77.707 18.415C77.5794 18.415 77.4587 18.4401 77.3447 18.4902C77.2354 18.5358 77.1374 18.6019 77.0508 18.6885C76.9688 18.7751 76.9027 18.8753 76.8525 18.9893C76.807 19.1032 76.7842 19.224 76.7842 19.3516V24H74.918V19.3516C74.918 19.224 74.8929 19.1032 74.8428 18.9893C74.7972 18.8753 74.7311 18.7751 74.6445 18.6885C74.5579 18.6019 74.4577 18.5358 74.3438 18.4902C74.2298 18.4401 74.109 18.415 73.9814 18.415C73.8538 18.415 73.7331 18.4401 73.6191 18.4902C73.5098 18.5358 73.4118 18.6019 73.3252 18.6885C73.2432 18.7751 73.1771 18.8753 73.127 18.9893C73.0814 19.1032 73.0586 19.224 73.0586 19.3516V24H71.1924V16.6787H71.6436L72.1494 17.2393C72.4092 17.0205 72.694 16.8519 73.0039 16.7334C73.3184 16.6104 73.6442 16.5488 73.9814 16.5488C74.3232 16.5488 74.6559 16.6126 74.9795 16.7402C75.3076 16.8678 75.5947 17.0889 75.8408 17.4033C75.9548 17.2484 76.0846 17.1162 76.2305 17.0068C76.3763 16.8975 76.529 16.8086 76.6885 16.7402C76.8525 16.6719 77.0212 16.624 77.1943 16.5967C77.3675 16.5648 77.5384 16.5488 77.707 16.5488C78.0944 16.5488 78.4567 16.6217 78.7939 16.7676C79.1357 16.9134 79.432 17.1139 79.6826 17.3691C79.9378 17.6198 80.1383 17.916 80.2842 18.2578C80.43 18.5996 80.5029 18.9642 80.5029 19.3516V24ZM89.9092 24H87.8105L84.0303 17.5469V24H82.0684V14.1973H84.167L87.9473 20.6572V14.1973H89.9092V24ZM98.5156 24H98.0645L97.3398 22.9951C97.1621 23.1546 96.973 23.305 96.7725 23.4463C96.5765 23.583 96.3691 23.7038 96.1504 23.8086C95.9316 23.9089 95.7061 23.9886 95.4736 24.0479C95.2458 24.1071 95.0133 24.1367 94.7764 24.1367C94.2614 24.1367 93.776 24.0501 93.3203 23.877C92.8691 23.7038 92.4727 23.4531 92.1309 23.125C91.7936 22.7923 91.527 22.3867 91.3311 21.9082C91.1351 21.4297 91.0371 20.8851 91.0371 20.2744C91.0371 19.7048 91.1351 19.1829 91.3311 18.709C91.527 18.2305 91.7936 17.8203 92.1309 17.4785C92.4727 17.1367 92.8691 16.8724 93.3203 16.6855C93.776 16.4941 94.2614 16.3984 94.7764 16.3984C95.0133 16.3984 95.248 16.4281 95.4805 16.4873C95.7129 16.5465 95.9385 16.6286 96.1572 16.7334C96.376 16.8382 96.5833 16.9613 96.7793 17.1025C96.9798 17.2438 97.1667 17.3965 97.3398 17.5605L98.0645 16.6924H98.5156V24ZM96.6357 20.2744C96.6357 20.0192 96.5856 19.7731 96.4854 19.5361C96.3896 19.2946 96.2575 19.0827 96.0889 18.9004C95.9202 18.7135 95.722 18.5654 95.4941 18.4561C95.2708 18.3421 95.0316 18.2852 94.7764 18.2852C94.5212 18.2852 94.2796 18.3285 94.0518 18.415C93.8285 18.5016 93.6325 18.6292 93.4639 18.7979C93.2998 18.9665 93.1699 19.1761 93.0742 19.4268C92.9785 19.6729 92.9307 19.9554 92.9307 20.2744C92.9307 20.5934 92.9785 20.8783 93.0742 21.1289C93.1699 21.375 93.2998 21.5824 93.4639 21.751C93.6325 21.9196 93.8285 22.0472 94.0518 22.1338C94.2796 22.2204 94.5212 22.2637 94.7764 22.2637C95.0316 22.2637 95.2708 22.209 95.4941 22.0996C95.722 21.9857 95.9202 21.8376 96.0889 21.6553C96.2575 21.4684 96.3896 21.2565 96.4854 21.0195C96.5856 20.778 96.6357 20.5296 96.6357 20.2744ZM105.153 20.2744C105.153 20.0192 105.103 19.7731 105.003 19.5361C104.907 19.2946 104.775 19.0827 104.606 18.9004C104.438 18.7135 104.24 18.5654 104.012 18.4561C103.788 18.3421 103.549 18.2852 103.294 18.2852C103.039 18.2852 102.797 18.3285 102.569 18.415C102.346 18.5016 102.15 18.6292 101.981 18.7979C101.817 18.9665 101.688 19.1761 101.592 19.4268C101.496 19.6729 101.448 19.9554 101.448 20.2744C101.448 20.5798 101.496 20.8555 101.592 21.1016C101.688 21.3431 101.817 21.5505 101.981 21.7236C102.15 21.8968 102.346 22.0312 102.569 22.127C102.797 22.2181 103.039 22.2637 103.294 22.2637C103.549 22.2637 103.788 22.209 104.012 22.0996C104.24 21.9857 104.438 21.8376 104.606 21.6553C104.775 21.4684 104.907 21.2565 105.003 21.0195C105.103 20.778 105.153 20.5296 105.153 20.2744ZM107.033 23.0771C107.033 23.5921 106.935 24.0752 106.739 24.5264C106.543 24.9775 106.274 25.3717 105.933 25.709C105.595 26.0462 105.199 26.3128 104.743 26.5088C104.292 26.7048 103.809 26.8027 103.294 26.8027L102.357 26.7891V24.9229L103.28 24.9365C103.572 24.9365 103.82 24.8978 104.025 24.8203C104.23 24.7474 104.404 24.6449 104.545 24.5127C104.686 24.3851 104.798 24.237 104.88 24.0684C104.966 23.8997 105.035 23.722 105.085 23.5352C105.012 23.6536 104.907 23.7516 104.771 23.8291C104.634 23.902 104.481 23.9613 104.312 24.0068C104.148 24.057 103.975 24.0911 103.793 24.1094C103.615 24.1276 103.449 24.1367 103.294 24.1367C102.779 24.1367 102.294 24.0479 101.838 23.8701C101.387 23.6924 100.99 23.4395 100.648 23.1113C100.311 22.7786 100.045 22.373 99.8486 21.8945C99.6527 21.416 99.5547 20.876 99.5547 20.2744C99.5547 19.723 99.6527 19.2103 99.8486 18.7363C100.045 18.2624 100.311 17.8522 100.648 17.5059C100.99 17.1595 101.387 16.8883 101.838 16.6924C102.294 16.4964 102.779 16.3984 103.294 16.3984C103.531 16.3984 103.766 16.4281 103.998 16.4873C104.23 16.5465 104.456 16.6286 104.675 16.7334C104.894 16.8382 105.101 16.9613 105.297 17.1025C105.497 17.2438 105.684 17.3965 105.857 17.5605L106.582 16.6924H107.033V23.0771ZM115.537 20.2744C115.537 20.8213 115.439 21.3317 115.243 21.8057C115.047 22.2751 114.781 22.6829 114.443 23.0293C114.106 23.3711 113.71 23.6423 113.254 23.8428C112.803 24.0387 112.317 24.1367 111.798 24.1367C111.283 24.1367 110.798 24.0387 110.342 23.8428C109.891 23.6423 109.494 23.3711 109.152 23.0293C108.815 22.6829 108.549 22.2751 108.353 21.8057C108.157 21.3317 108.059 20.8213 108.059 20.2744C108.059 19.7184 108.157 19.2035 108.353 18.7295C108.549 18.2555 108.815 17.8477 109.152 17.5059C109.494 17.1595 109.891 16.8883 110.342 16.6924C110.798 16.4964 111.283 16.3984 111.798 16.3984C112.317 16.3984 112.803 16.4919 113.254 16.6787C113.71 16.861 114.106 17.123 114.443 17.4648C114.781 17.8021 115.047 18.21 115.243 18.6885C115.439 19.1624 115.537 19.6911 115.537 20.2744ZM113.657 20.2744C113.657 19.9736 113.607 19.7025 113.507 19.4609C113.411 19.2148 113.279 19.0052 113.11 18.832C112.942 18.6543 112.743 18.5199 112.516 18.4287C112.292 18.333 112.053 18.2852 111.798 18.2852C111.543 18.2852 111.301 18.333 111.073 18.4287C110.85 18.5199 110.654 18.6543 110.485 18.832C110.321 19.0052 110.191 19.2148 110.096 19.4609C110 19.7025 109.952 19.9736 109.952 20.2744C109.952 20.557 110 20.819 110.096 21.0605C110.191 21.3021 110.321 21.5117 110.485 21.6895C110.654 21.8672 110.85 22.0085 111.073 22.1133C111.301 22.2135 111.543 22.2637 111.798 22.2637C112.053 22.2637 112.292 22.2158 112.516 22.1201C112.743 22.0244 112.942 21.89 113.11 21.7168C113.279 21.5436 113.411 21.334 113.507 21.0879C113.607 20.8418 113.657 20.5706 113.657 20.2744ZM118.436 24H116.569V16.6787H117.021L117.636 17.5469C117.937 17.2734 118.278 17.0638 118.661 16.918C119.044 16.7676 119.44 16.6924 119.851 16.6924H121.498V18.5518H119.851C119.655 18.5518 119.47 18.5882 119.297 18.6611C119.124 18.734 118.973 18.8343 118.846 18.9619C118.718 19.0895 118.618 19.2399 118.545 19.4131C118.472 19.5863 118.436 19.7708 118.436 19.9668V24Z" fill="black" fill-opacity="0.9"/>
</g>
</svg>
