<svg width="20" height="20" viewBox="0 0 20 20" fill="none" xmlns="http://www.w3.org/2000/svg">
<path fill-rule="evenodd" clip-rule="evenodd" d="M7.172 11.334L10.002 13.269L12.73 11.387L18.845 17.42C18.6837 17.4727 18.513 17.4993 18.333 17.5H1.667C1.447 17.5 1.237 17.457 1.044 17.38L7.172 11.334ZM20 6.376V15.833C20 16.08 19.946 16.314 19.85 16.525L13.856 10.611L20 6.376ZM0 6.429L6.042 10.561L0.106 16.419C0.0364628 16.2314 0.000578992 16.033 0 15.833L0 6.429ZM18.333 2.5C19.253 2.5 20 3.246 20 4.167V4.753L9.998 11.648L0 4.81V4.167C0 3.247 0.746 2.5 1.667 2.5H18.333Z" fill="white"/>
</svg>
