<svg width="98" height="86" viewBox="0 0 98 86" fill="none" xmlns="http://www.w3.org/2000/svg">
<path d="M80.082 86C91.4181 86 98 80.5613 98 70.4095C98 61.3452 92.1492 55.1815 82.6418 55.1815C77.1569 55.1815 73.1344 56.9943 70.9402 60.6199C68.7462 57.7193 67.2836 53.0059 67.2836 45.7545C67.2836 30.164 72.403 16.0236 85.2014 2.97104C86.6642 1.52076 84.1044 -1.01724 82.2762 0.43305C65.8211 16.3862 55.582 32.7021 55.582 53.3685C55.582 74.7604 64.7238 86 80.082 86ZM24.5 86C35.8358 86 42.418 80.5613 42.418 70.4095C42.418 61.3452 36.5672 55.1815 27.0597 55.1815C21.5747 55.1815 17.5523 56.9943 15.3582 60.6199C13.1642 57.7193 11.7015 53.0059 11.7015 45.7545C11.7015 30.164 16.8209 16.0236 29.6194 2.97104C31.082 1.52076 28.5224 -1.01724 26.6941 0.433044C10.2388 16.3862 1.70863e-05 32.7021 1.52588e-05 53.3685C1.33672e-05 74.7601 9.14181 86 24.5 86Z" fill="white"/>
</svg>
